<?xml version="1.0" encoding="UTF-8"?>
<svg xmlns="http://www.w3.org/2000/svg" xmlns:xlink="http://www.w3.org/1999/xlink" viewBox="0 0 48 48" width="48px" height="48px">
<g id="surface199632566">
<path style=" stroke:none;fill-rule:nonzero;fill:rgb(100%,22.352941%,36.470589%);fill-opacity:1;" d="M 42.460938 32.519531 C 41.421875 29.183594 32.921875 12.921875 30.339844 8.019531 L 30.3125 7.972656 C 29.152344 5.558594 26.675781 4 24 4 C 21.324219 4 18.847656 5.558594 17.710938 7.929688 L 17.660156 8.019531 C 15.078125 12.921875 6.578125 29.183594 5.542969 32.519531 C 5.261719 33.421875 5 34.40625 5 35.5 C 5 40.1875 8.8125 44 13.5 44 C 18.152344 44 21.113281 42.050781 24 38.816406 C 26.886719 42.050781 29.847656 44 34.5 44 C 39.1875 44 43 40.1875 43 35.5 C 43 34.40625 42.738281 33.421875 42.460938 32.519531 Z M 24 34.660156 C 22.328125 32.515625 20 28.882812 20 26 C 20 23.792969 21.792969 22 24 22 C 26.207031 22 28 23.792969 28 26 C 28 28.871094 25.667969 32.511719 24 34.660156 Z M 34.5 41 C 31.214844 41 28.980469 39.894531 26.175781 36.742188 C 27.878906 34.597656 31 30.105469 31 26 C 31 22.140625 27.859375 19 24 19 C 20.140625 19 17 22.140625 17 26 C 17 30.105469 20.121094 34.597656 21.824219 36.742188 C 19.019531 39.894531 16.785156 41 13.5 41 C 10.46875 41 8 38.53125 8 35.5 C 8 34.847656 8.160156 34.191406 8.40625 33.410156 C 9.171875 30.949219 15.300781 18.949219 20.316406 9.417969 L 20.390625 9.269531 C 21.054688 7.890625 22.472656 7 24 7 C 25.527344 7 26.945312 7.890625 27.613281 9.285156 L 27.683594 9.417969 C 32.699219 18.949219 38.828125 30.949219 39.59375 33.410156 C 39.839844 34.191406 40 34.847656 40 35.5 C 40 38.53125 37.53125 41 34.5 41 Z M 34.5 41 "/>
</g>
</svg>
